<svg xmlns="http://www.w3.org/2000/svg" viewBox="0 0 640 360" width="640" height="360"
     role="img" aria-label="VesselVis 3D vessel segmentation review tool — placeholder graphic">
  <!-- PLACEHOLDER — original abstract artwork standing in for a real photo/figure.
       Replace with a real image (jpg/png) and update the <img src> in index.html. -->
  <rect width="640" height="360" fill="#f0f2ea"/>
  <!-- branching vessel-tree motif, tapering strokes -->
  <g fill="none" stroke="#873d32" stroke-linecap="round">
    <path d="M320 340 C 320 270 320 250 320 200" stroke-width="9"/>
    <path d="M320 200 C 300 175 260 165 210 150" stroke-width="6.5"/>
    <path d="M320 200 C 340 170 380 158 430 150" stroke-width="6.5"/>
    <path d="M210 150 C 180 140 150 145 115 130" stroke-width="4.2"/>
    <path d="M210 150 C 205 120 210 95 195 60" stroke-width="4.2"/>
    <path d="M430 150 C 460 140 485 148 520 135" stroke-width="4.2"/>
    <path d="M430 150 C 440 118 435 90 455 55" stroke-width="4.2"/>
    <path d="M115 130 C 95 122 80 128 60 118" stroke-width="2.4"/>
    <path d="M115 130 C 108 105 115 90 100 65" stroke-width="2.4"/>
    <path d="M520 135 C 542 128 558 133 578 122" stroke-width="2.4"/>
    <path d="M195 60 C 185 40 190 22 175 5" stroke-width="2.2"/>
    <path d="M455 55 C 465 35 460 18 475 2" stroke-width="2.2"/>
  </g>
  <g fill="none" stroke="#ffc068" stroke-linecap="round" opacity="0.9">
    <path d="M320 340 C 320 270 320 250 320 200" stroke-width="2" stroke-dasharray="1 7"/>
  </g>
  <!-- a couple of highlighted / selected nodes, echoing an annotation UI -->
  <circle cx="210" cy="150" r="5" fill="#ffc068" stroke="#2a2c2b" stroke-width="1"/>
  <circle cx="430" cy="150" r="5" fill="#ffc068" stroke="#2a2c2b" stroke-width="1"/>
</svg>
